<?xml version="1.0" encoding="utf-8"?>
<!-- Generator: Adobe Illustrator 19.2.1, SVG Export Plug-In . SVG Version: 6.00 Build 0)  -->
<svg version="1.1" id="layer" xmlns="http://www.w3.org/2000/svg" xmlns:xlink="http://www.w3.org/1999/xlink" x="0px" y="0px"
	 viewBox="0 0 652 652" style="enable-background:new 0 0 652 652;" xml:space="preserve">
<style type="text/css">
	.st0{fill:#FFD829;}
	.st1{fill:#0A0A0A;}
</style>
<path class="st0" d="M39.1,352.7c-7.5-7.2-12.2-16.9-12.2-27.7c0-21.8,19.4-39.4,43.4-39.4s43.4,17.7,43.4,39.4
	c0,21.8-19.4,39.4-43.4,39.4c-0.9,0-1.8,0-2.6-0.1l0,0.1H28.2c-0.7,0-0.9-0.4-0.4-0.9L39.1,352.7z"/>
<path class="st1" d="M84.6,326.8l-8.6,8.5c-0.8,0.8-0.7,2,0.3,2.6l1.7,1.1c0.9,0.6,2.1,0.5,2.8-0.3L92,327.7c0.8-0.8,0.8-2,0-2.7
	l-11.2-11.1c-0.7-0.7-2-0.8-2.8-0.3l-1.7,1.1c-0.9,0.6-1.1,1.8-0.3,2.6l8.6,8.5C84.8,326.1,84.6,326.8,84.6,326.8z M55.9,326.8
	c-0.3-0.3-0.3-0.7,0-0.9l8.6-8.5c0.8-0.8,0.7-2-0.3-2.6l-1.7-1.1c-0.9-0.6-2.1-0.5-2.8,0.3L48.4,325c-0.8,0.8-0.8,2,0,2.7l11.2,11.1
	c0.7,0.7,2,0.8,2.8,0.3l1.7-1.1c0.9-0.6,1.1-1.8,0.3-2.6C64.4,335.3,55.9,326.8,55.9,326.8z"/>
<path class="st1" d="M148.9,308.8v-7.3h7.4v7.3H148.9z M149.4,351.6v-35.5h6.4v35.5H149.4z M190.2,351.6v-25.4c0-0.1,0-0.2,0-0.4
	s0-0.4-0.1-0.4c-0.1-0.3-0.3-0.6-0.6-0.9c-0.3-0.3-0.6-0.7-0.9-1c-0.3-0.3-0.7-0.6-1-0.9c-0.3-0.3-0.7-0.5-1-0.6
	c-0.2-0.1-0.5-0.2-1-0.2h-5.8c-0.4,0-0.9,0.2-1.5,0.5c-0.6,0.3-1.3,0.8-1.9,1.2c-0.6,0.5-1.2,0.9-1.8,1.4c-0.5,0.5-0.9,0.9-1.1,1.1
	v25.6H167v-28.9l-0.7-6.6h6.4l0.3,2.9c0.4-0.4,0.9-0.8,1.4-1.1c0.5-0.4,1-0.7,1.6-1.1c0.6-0.3,1.1-0.6,1.7-0.8
	c0.6-0.2,1.2-0.3,1.7-0.3h6.1c1,0,2,0.1,3.1,0.4c1,0.3,1.9,0.7,2.7,1.2c0.3,0.2,0.7,0.5,1.1,0.9c0.4,0.3,0.8,0.7,1.1,1.1
	c0.4,0.4,0.7,0.8,1,1.1s0.5,0.6,0.7,0.8c0.5,0.7,0.9,1.4,1,2.3c0.2,0.8,0.3,1.6,0.3,2.5v25.6H190.2z M216.2,322.1V341
	c0,0.3,0,0.5,0,0.7c0,0.2,0.1,0.3,0.1,0.4c0.3,0.6,0.8,1.2,1.4,1.9c0.7,0.7,1.3,1.1,1.9,1.4c0.1,0.1,0.2,0.1,0.4,0.2
	c0.2,0.1,0.4,0.1,0.7,0.1h5.8v6h-5.9c-1,0-2-0.1-3-0.4s-1.9-0.7-2.6-1.2c-0.3-0.2-0.7-0.5-1.1-0.9c-0.4-0.4-0.8-0.7-1.1-1.1
	c-0.4-0.4-0.7-0.8-1-1.1c-0.3-0.4-0.5-0.6-0.7-0.9c-0.5-0.7-0.9-1.5-1.1-2.3c-0.2-0.8-0.3-1.7-0.3-2.5v-19h-5.8v-6h5.8v-13.9h6.4
	v13.9H227v6H216.2z M265.1,343.5c-0.3,0.6-0.6,1.3-1,1.9c-0.4,0.7-0.9,1.3-1.3,1.9s-1,1.2-1.5,1.7c-0.5,0.5-1,1-1.5,1.3
	c-0.8,0.5-1.6,0.9-2.6,1.2c-1,0.3-2,0.4-3,0.4H246c-1,0-2-0.1-3-0.4c-1-0.3-1.9-0.7-2.7-1.2c-0.3-0.2-0.6-0.5-1-0.8
	s-0.8-0.7-1.1-1.1s-0.7-0.8-1-1.1c-0.3-0.3-0.6-0.6-0.7-0.9c-0.5-0.7-0.9-1.4-1.1-2.2c-0.2-0.8-0.3-1.6-0.3-2.5V326
	c0-0.9,0.1-1.7,0.3-2.5c0.2-0.8,0.6-1.5,1.1-2.2c0.2-0.2,0.4-0.5,0.7-0.8s0.7-0.7,1-1.1c0.4-0.4,0.8-0.8,1.1-1.1s0.7-0.6,1-0.9
	c0.8-0.5,1.6-0.9,2.7-1.2c1-0.3,2-0.4,3-0.4h8.2c1,0,2,0.1,3.1,0.4c1,0.3,1.9,0.7,2.7,1.2c0.3,0.2,0.7,0.5,1.1,0.9s0.8,0.7,1.1,1.1
	c0.4,0.4,0.7,0.8,1,1.1c0.3,0.3,0.5,0.6,0.7,0.8c0.5,0.7,0.9,1.4,1,2.3c0.2,0.8,0.3,1.6,0.3,2.5v10.6h-23.8v4.9c0,0.2,0,0.4,0,0.6
	c0,0.1,0.1,0.3,0.1,0.3c0.1,0.2,0.3,0.5,0.5,0.8c0.2,0.3,0.5,0.6,0.8,0.9c0.3,0.3,0.6,0.6,1,0.9c0.3,0.3,0.7,0.5,1,0.7
	c0.3,0.2,0.7,0.2,1.1,0.2h8.3c0.2,0,0.4,0,0.5-0.1s0.3-0.1,0.4-0.2c0.3-0.2,0.6-0.4,0.9-0.6c0.3-0.3,0.7-0.5,1-0.8
	c0.3-0.3,0.6-0.6,0.9-0.9c0.3-0.3,0.5-0.6,0.6-0.9l0.5-0.9L265.1,343.5z M258.7,326.2c0-0.1,0-0.2,0-0.4s0-0.4-0.1-0.4
	c-0.1-0.3-0.3-0.6-0.6-0.9c-0.3-0.3-0.6-0.6-0.9-0.9c-0.3-0.3-0.7-0.6-1-0.8c-0.3-0.3-0.7-0.4-1-0.6c-0.2-0.1-0.3-0.1-0.4-0.2
	s-0.3-0.1-0.6-0.1H246c-0.1,0-0.3,0-0.5,0.1s-0.4,0.1-0.5,0.2c-0.8,0.5-1.5,1-2.1,1.5c-0.6,0.6-1,1.2-1.3,1.8
	c-0.1,0.1-0.2,0.4-0.2,0.9v4.6h17.4V326.2z M297.4,326.1c-0.2-0.4-0.5-0.9-0.8-1.4s-0.7-1-1.2-1.4c-0.4-0.4-0.9-0.8-1.4-1.1
	c-0.5-0.3-1-0.4-1.4-0.4h-4.5c-0.4,0-1,0.2-1.6,0.5c-0.7,0.3-1.3,0.8-2,1.2c-0.7,0.5-1.3,1-1.8,1.4s-0.9,0.9-1.1,1.2v25.4h-6.4
	v-28.9l-0.6-6.6h6.3l0.4,2.9c0.4-0.4,0.9-0.8,1.4-1.2s1-0.7,1.6-1c0.6-0.3,1.1-0.6,1.7-0.8c0.6-0.2,1.2-0.3,1.8-0.3h4.5
	c1,0,2,0.1,3,0.4s1.9,0.6,2.6,1.2c0.5,0.3,1,0.8,1.5,1.3c0.5,0.5,1.1,1.1,1.6,1.8s1,1.3,1.4,2c0.4,0.7,0.8,1.3,1,1.9L297.4,326.1z
	 M325.6,351.6H318l-12.4-35.5h6.9l9.2,27.9l9.2-27.9h6.8L325.6,351.6z M344.6,308.8v-7.3h7.4v7.3H344.6z M345.1,351.6v-35.5h6.4
	v35.5H345.1z M392.3,343.5c-0.3,0.6-0.6,1.3-1,1.9c-0.4,0.7-0.9,1.3-1.3,1.9s-1,1.2-1.5,1.7s-1,1-1.5,1.3c-0.8,0.5-1.6,0.9-2.6,1.2
	c-1,0.3-2,0.4-3,0.4h-8.1c-1,0-2-0.1-3-0.4c-1-0.3-1.9-0.7-2.7-1.2c-0.3-0.2-0.6-0.5-1-0.8c-0.4-0.3-0.8-0.7-1.1-1.1s-0.7-0.8-1-1.1
	c-0.3-0.3-0.6-0.6-0.7-0.9c-0.5-0.7-0.9-1.4-1.1-2.2c-0.2-0.8-0.3-1.6-0.3-2.5V326c0-0.9,0.1-1.7,0.3-2.5c0.2-0.8,0.6-1.5,1.1-2.2
	c0.2-0.2,0.4-0.5,0.7-0.8c0.3-0.3,0.7-0.7,1-1.1c0.4-0.4,0.8-0.8,1.1-1.1c0.4-0.3,0.7-0.6,1-0.9c0.8-0.5,1.6-0.9,2.7-1.2
	c1-0.3,2-0.4,3-0.4h8.2c1,0,2,0.1,3.1,0.4c1,0.3,1.9,0.7,2.7,1.2c0.3,0.2,0.7,0.5,1.1,0.9s0.8,0.7,1.1,1.1c0.4,0.4,0.7,0.8,1,1.1
	c0.3,0.3,0.5,0.6,0.7,0.8c0.5,0.7,0.9,1.4,1,2.3c0.2,0.8,0.3,1.6,0.3,2.5v10.6h-23.8v4.9c0,0.2,0,0.4,0,0.6c0,0.1,0.1,0.3,0.1,0.3
	c0.1,0.2,0.3,0.5,0.5,0.8c0.2,0.3,0.5,0.6,0.8,0.9c0.3,0.3,0.6,0.6,1,0.9c0.3,0.3,0.7,0.5,1,0.7c0.3,0.2,0.7,0.2,1.1,0.2h8.3
	c0.2,0,0.4,0,0.5-0.1s0.3-0.1,0.4-0.2c0.3-0.2,0.6-0.4,0.9-0.6c0.3-0.3,0.7-0.5,1-0.8c0.3-0.3,0.6-0.6,0.9-0.9
	c0.3-0.3,0.5-0.6,0.6-0.9l0.5-0.9L392.3,343.5z M385.9,326.2c0-0.1,0-0.2,0-0.4s0-0.4-0.1-0.4c-0.1-0.3-0.3-0.6-0.6-0.9
	c-0.3-0.3-0.6-0.6-0.9-0.9c-0.3-0.3-0.7-0.6-1-0.8s-0.7-0.4-1-0.6c-0.2-0.1-0.3-0.1-0.4-0.2s-0.3-0.1-0.6-0.1h-8.1
	c-0.1,0-0.3,0-0.5,0.1c-0.2,0-0.4,0.1-0.5,0.2c-0.8,0.5-1.5,1-2.1,1.5c-0.6,0.6-1,1.2-1.3,1.8c-0.1,0.1-0.2,0.4-0.2,0.9v4.6h17.4
	V326.2z M440.2,351.6h-7.7l-8-26.2l-7.6,26.2h-7.6l-10.9-35.5h6.8l7.9,27.6l7.6-27.6h7.8l7.9,27.6l7.6-27.6h6.8L440.2,351.6z
	 M457.2,308.8v-7.3h7.4v7.3H457.2z M457.8,351.6v-35.5h6.4v35.5H457.8z M498.5,351.6v-25.4c0-0.1,0-0.2,0-0.4s0-0.4-0.1-0.4
	c-0.1-0.3-0.3-0.6-0.6-0.9c-0.3-0.3-0.6-0.7-0.9-1c-0.3-0.3-0.7-0.6-1-0.9s-0.7-0.5-1-0.6c-0.2-0.1-0.5-0.2-1-0.2h-5.8
	c-0.4,0-0.9,0.2-1.5,0.5c-0.6,0.3-1.3,0.8-1.9,1.2s-1.2,0.9-1.8,1.4s-0.9,0.9-1.1,1.1v25.6h-6.4v-28.9l-0.7-6.6h6.4l0.3,2.9
	c0.4-0.4,0.9-0.8,1.4-1.1c0.5-0.4,1-0.7,1.6-1.1c0.6-0.3,1.1-0.6,1.7-0.8c0.6-0.2,1.2-0.3,1.7-0.3h6.1c1,0,2,0.1,3.1,0.4
	c1,0.3,1.9,0.7,2.7,1.2c0.3,0.2,0.7,0.5,1.1,0.9c0.4,0.3,0.8,0.7,1.1,1.1c0.4,0.4,0.7,0.8,1,1.1c0.3,0.3,0.5,0.6,0.7,0.8
	c0.5,0.7,0.9,1.4,1,2.3c0.2,0.8,0.3,1.6,0.3,2.5v25.6H498.5z M545.6,322.8v32.6c0,0.9-0.1,1.7-0.3,2.5s-0.5,1.6-1,2.3
	c-0.2,0.2-0.4,0.5-0.7,0.9s-0.6,0.7-1,1.1c-0.4,0.4-0.8,0.8-1.1,1.1c-0.4,0.3-0.7,0.6-1.1,0.8c-0.8,0.5-1.6,1-2.7,1.3s-2,0.5-3,0.5
	h-8.2c-0.9,0-1.9-0.2-3-0.5c-1-0.3-1.9-0.7-2.6-1.3c-0.5-0.3-1-0.7-1.5-1.3c-0.5-0.5-1.1-1.1-1.6-1.7s-1-1.3-1.4-2
	c-0.4-0.7-0.8-1.3-1-1.9l6-2c0.2,0.4,0.5,0.9,0.9,1.4c0.4,0.5,0.8,1,1.3,1.5c0.5,0.5,0.9,0.9,1.4,1.2c0.5,0.3,1,0.5,1.4,0.5h8.2
	c0.2,0,0.4,0,0.5-0.1s0.3-0.1,0.4-0.2c0.2-0.1,0.6-0.4,0.9-0.7c0.4-0.3,0.8-0.6,1.2-1s0.7-0.8,1-1.1s0.5-0.7,0.5-0.9v-0.6v-6.3
	c-0.4,0.4-0.9,0.8-1.3,1.1c-0.5,0.4-1,0.7-1.6,1c-0.5,0.3-1.1,0.5-1.7,0.7c-0.6,0.2-1.1,0.3-1.7,0.3h-6.8c-0.9,0-1.9-0.1-3-0.4
	c-1.1-0.3-2-0.7-2.7-1.2c-0.3-0.2-0.6-0.5-1-0.9c-0.4-0.4-0.8-0.7-1.1-1.1c-0.4-0.4-0.7-0.8-1-1.1c-0.3-0.4-0.6-0.6-0.7-0.9
	c-0.5-0.7-0.9-1.5-1-2.3s-0.3-1.7-0.3-2.5v-15.4c0-0.9,0.1-1.7,0.3-2.5s0.5-1.6,1-2.3c0.2-0.2,0.4-0.5,0.7-0.9
	c0.3-0.4,0.7-0.7,1-1.1c0.4-0.4,0.8-0.8,1.1-1.1s0.7-0.7,1-0.9c0.8-0.5,1.7-0.9,2.7-1.2c1.1-0.3,2.1-0.4,3-0.4h6.8
	c0.6,0,1.2,0.1,1.8,0.3c0.6,0.2,1.2,0.5,1.7,0.8c0.6,0.3,1.1,0.7,1.6,1.1c0.5,0.4,1,0.8,1.4,1.2l0.4-3.1h6.4L545.6,322.8z
	 M539.2,326.5c-0.2-0.3-0.6-0.7-1.2-1.2c-0.6-0.5-1.2-1.1-1.8-1.6c-0.7-0.5-1.3-1-2-1.4s-1.2-0.6-1.6-0.6h-6.4c-0.3,0-0.5,0-0.6,0.1
	c-0.1,0.1-0.3,0.1-0.4,0.2c-0.3,0.2-0.6,0.4-1,0.6s-0.7,0.6-1,0.9c-0.3,0.3-0.6,0.6-0.9,1c-0.3,0.3-0.5,0.6-0.6,0.9
	c-0.1,0.1-0.1,0.2-0.1,0.3c0,0.1,0,0.3,0,0.6v15.1c0,0.2,0,0.4,0,0.6c0,0.1,0.1,0.3,0.1,0.4c0.1,0.3,0.3,0.6,0.6,0.9
	c0.3,0.3,0.6,0.7,0.9,1c0.3,0.3,0.7,0.6,1,0.9s0.7,0.5,1,0.7c0.2,0.1,0.3,0.1,0.4,0.1c0.1,0,0.3,0,0.6,0h6.4c0.4,0,0.7,0,0.8-0.1
	c0.5-0.2,1-0.5,1.5-0.9s1.1-0.8,1.7-1.2c0.6-0.4,1.1-0.9,1.5-1.3s0.9-0.9,1.1-1.2V326.5z M558.8,351.6v-8.5h8.4v8.5H558.8z
	 M579.2,308.8v-7.3h7.4v7.3H579.2z M579.7,351.6v-35.5h6.4v35.5H579.7z M626.8,341.7c0,0.8-0.1,1.6-0.3,2.5c-0.2,0.8-0.5,1.6-1,2.3
	c-0.2,0.2-0.4,0.5-0.7,0.9c-0.3,0.3-0.7,0.7-1,1.1c-0.4,0.4-0.8,0.8-1.1,1.1c-0.4,0.3-0.7,0.6-1,0.8c-0.8,0.5-1.6,0.9-2.7,1.2
	c-1,0.3-2,0.4-3.1,0.4h-8.2c-1,0-2-0.1-3.1-0.4c-1-0.3-1.9-0.7-2.7-1.2c-0.3-0.2-0.6-0.5-1-0.8s-0.8-0.7-1.1-1.1
	c-0.4-0.4-0.7-0.8-1-1.1c-0.3-0.3-0.6-0.6-0.7-0.9c-0.5-0.7-0.9-1.4-1-2.3c-0.2-0.8-0.3-1.6-0.3-2.5V326c0-0.8,0.1-1.6,0.3-2.5
	c0.2-0.8,0.5-1.6,1-2.3c0.2-0.2,0.4-0.5,0.7-0.8c0.3-0.3,0.7-0.7,1-1.1c0.4-0.4,0.8-0.8,1.1-1.1s0.7-0.6,1-0.9
	c0.8-0.5,1.6-0.9,2.7-1.2c1-0.3,2-0.4,3.1-0.4h8.2c1,0,2,0.1,3.1,0.4c1,0.3,1.9,0.7,2.7,1.2c0.3,0.2,0.6,0.5,1,0.9
	c0.4,0.3,0.8,0.7,1.1,1.1c0.4,0.4,0.7,0.8,1,1.1s0.6,0.6,0.7,0.8c0.5,0.7,0.9,1.4,1,2.3c0.2,0.8,0.3,1.6,0.3,2.5V341.7z
	 M620.3,342.6c0.1-0.2,0.1-0.3,0.1-0.6c0-0.2,0-0.4,0-0.5v-15.4c0-0.3,0-0.5-0.1-0.7c0-0.2-0.1-0.3-0.2-0.5
	c-0.4-0.5-0.9-1.1-1.4-1.6s-1.2-1-1.8-1.3c-0.1-0.1-0.3-0.2-0.5-0.2c-0.2-0.1-0.4-0.1-0.7-0.1h-8c-0.3,0-0.5,0-0.6,0.1
	c-0.2,0.1-0.3,0.1-0.4,0.2c-0.3,0.1-0.6,0.3-1,0.6c-0.3,0.3-0.7,0.5-1,0.8c-0.3,0.3-0.6,0.6-0.9,0.9c-0.3,0.3-0.5,0.6-0.7,0.9
	c-0.1,0.1-0.1,0.2-0.1,0.3s0,0.3,0,0.6v15.4c0,0.2,0,0.4,0,0.6c0,0.1,0.1,0.3,0.1,0.3c0.1,0.3,0.3,0.6,0.6,0.9
	c0.3,0.3,0.6,0.6,0.9,0.9c0.3,0.3,0.7,0.6,1,0.8c0.3,0.3,0.7,0.5,1,0.6c0.2,0.1,0.3,0.1,0.4,0.2s0.3,0.1,0.6,0.1h8
	c0.3,0,0.5,0,0.6-0.1s0.3-0.1,0.4-0.2c0.2-0.1,0.5-0.3,0.8-0.6c0.3-0.3,0.7-0.5,1-0.8c0.3-0.3,0.7-0.6,0.9-0.9
	C619.9,343.1,620.1,342.8,620.3,342.6z"/>
</svg>
